<?xml version="1.0" encoding="UTF-8"?>
<svg xmlns="http://www.w3.org/2000/svg" xmlns:xlink="http://www.w3.org/1999/xlink" width="375pt" height="225pt" viewBox="0 0 375 225" version="1.2">
<defs>
<clipPath id="clip1">
  <path d="M 40 4.417969 L 336 4.417969 L 336 219 L 40 219 Z M 40 4.417969 "/>
</clipPath>
</defs>
<g id="surface1">
<g clip-path="url(#clip1)" clip-rule="nonzero">
<path style=" stroke:none;fill-rule:evenodd;fill:rgb(32.939148%,32.939148%,32.939148%);fill-opacity:1;" d="M 40.125 196.308594 C 40.125 208.878906 50.347656 218.90625 62.871094 218.90625 L 312.320312 218.90625 C 324.90625 218.90625 335.070312 208.816406 335.070312 196.308594 L 335.070312 60.246094 C 335.070312 47.738281 324.90625 37.648438 312.382812 37.648438 L 253.0625 37.648438 L 232.027344 6.199219 C 230.964844 4.605469 229.191406 3.664062 227.300781 3.664062 L 147.894531 3.664062 C 146.003906 3.664062 144.230469 4.605469 143.167969 6.199219 L 122.132812 37.648438 L 62.8125 37.648438 C 50.289062 37.648438 40.125 47.738281 40.125 60.246094 Z M 249.988281 122.613281 C 249.988281 88.214844 222.042969 60.304688 187.597656 60.304688 C 153.152344 60.304688 125.207031 88.214844 125.207031 122.613281 C 125.207031 157.011719 153.152344 184.921875 187.597656 184.921875 C 222.042969 184.921875 249.988281 157.011719 249.988281 122.613281 Z M 136.550781 122.613281 C 136.550781 94.46875 159.414062 71.636719 187.597656 71.636719 C 215.78125 71.636719 238.644531 94.46875 238.644531 122.613281 C 238.644531 150.757812 215.78125 173.59375 187.597656 173.59375 C 159.414062 173.59375 136.550781 150.757812 136.550781 122.613281 Z M 278.347656 94.292969 C 284.613281 94.292969 289.691406 89.21875 289.691406 82.964844 C 289.691406 76.710938 284.613281 71.636719 278.347656 71.636719 C 272.085938 71.636719 267.003906 76.710938 267.003906 82.964844 C 267.003906 89.21875 272.085938 94.292969 278.347656 94.292969 Z M 278.347656 94.292969 "/>
</g>
</g>
</svg>
